<svg width="20" height="20" enable-background="new 0 0 20 20" height="20" viewBox="0 0 20 20" width="20" xmlns="http://www.w3.org/2000/svg"><path d="m0 0h20v20h-20z" fill="none"/><path d="m12 15c-1.63 0-3.06-.79-3.98-2h3.98l1-2h-5.9c-.06-.32-.1-.66-.1-1s.04-.68.1-1h4.9l1-2h-4.98c.92-1.21 2.35-2 3.98-2 1.38 0 2.63.56 3.54 1.46l1.41-1.41c-1.27-1.27-3.02-2.05-4.95-2.05-2.79 0-5.19 1.64-6.32 4h-2.68l-1 2h3.08c-.05.33-.08.66-.08 1s.03.67.08 1h-2.08l-1 2h3.68c1.12 2.36 3.53 4 6.32 4 1.93 0 3.68-.78 4.95-2.05l-1.41-1.41c-.91.9-2.16 1.46-3.54 1.46z"/></svg>